<?xml version="1.0" encoding="UTF-8"?>
<svg width="100px" height="100px" viewBox="0 0 100 100" version="1.1" xmlns="http://www.w3.org/2000/svg" xmlns:xlink="http://www.w3.org/1999/xlink">
    <title>编组 5</title>
    <defs>
        <linearGradient x1="50%" y1="0%" x2="50%" y2="100%" id="linearGradient-1">
            <stop stop-color="#02D4FF" offset="0%"></stop>
            <stop stop-color="#0087FF" offset="100%"></stop>
        </linearGradient>
        <circle id="path-2" cx="50" cy="50" r="50"></circle>
        <filter x="-13.5%" y="-13.5%" width="127.0%" height="127.0%" filterUnits="objectBoundingBox" id="filter-3">
            <feGaussianBlur stdDeviation="8.5" in="SourceAlpha" result="shadowBlurInner1"></feGaussianBlur>
            <feOffset dx="4" dy="10" in="shadowBlurInner1" result="shadowOffsetInner1"></feOffset>
            <feComposite in="shadowOffsetInner1" in2="SourceAlpha" operator="arithmetic" k2="-1" k3="1" result="shadowInnerInner1"></feComposite>
            <feColorMatrix values="0 0 0 0 0   0 0 0 0 0.897891171   0 0 0 0 1  0 0 0 0.680588942 0" type="matrix" in="shadowInnerInner1"></feColorMatrix>
        </filter>
    </defs>
    <g id="页面-1" stroke="none" stroke-width="1" fill="none" fill-rule="evenodd">
        <g id="09工程档案" transform="translate(-325.000000, -1444.000000)">
            <g id="编组-5" transform="translate(325.000000, 1444.000000)">
                <g id="椭圆形">
                    <use fill="url(#linearGradient-1)" fill-rule="evenodd" xlink:href="#path-2"></use>
                    <use fill="black" fill-opacity="1" filter="url(#filter-3)" xlink:href="#path-2"></use>
                </g>
                <path d="M50,18 C52.209139,18 54,19.790861 54,22 L54,46 L78,46 C80.209139,46 82,47.790861 82,50 C82,52.209139 80.209139,54 78,54 L54,54 L54,78 C54,80.209139 52.209139,82 50,82 C47.790861,82 46,80.209139 46,78 L46,54 L22,54 C19.790861,54 18,52.209139 18,50 C18,47.790861 19.790861,46 22,46 L46,46 L46,22 C46,19.790861 47.790861,18 50,18 Z" id="形状结合" fill="#FFFFFF"></path>
            </g>
        </g>
    </g>
</svg>