<?xml version="1.0" encoding="UTF-8"?>
<svg width="126px" height="126px" viewBox="0 0 126 126" version="1.1" xmlns="http://www.w3.org/2000/svg" xmlns:xlink="http://www.w3.org/1999/xlink">
    <title>编组 7</title>
    <defs>
        <linearGradient x1="50%" y1="0%" x2="50%" y2="100%" id="linearGradient-1">
            <stop stop-color="#F2D589" offset="0%"></stop>
            <stop stop-color="#F7AC48" offset="100%"></stop>
        </linearGradient>
    </defs>
    <g id="页面-1" stroke="none" stroke-width="1" fill="none" fill-rule="evenodd">
        <g id="快捷操作窗" transform="translate(-62.000000, -1365.000000)">
            <g id="编组-7" transform="translate(62.000000, 1365.000000)">
                <circle id="椭圆形" fill="#FAFAFB" cx="63" cy="63" r="63"></circle>
                <g id="编组-6" transform="translate(33.000000, 40.000000)" fill-rule="nonzero">
                    <path d="M53.3589325,12.8559086 C54.2344245,12.9480657 55.1099165,13.1784583 55.9854085,13.5470865 C56.8609005,13.9157147 57.6211961,14.4340981 58.2662955,15.1022367 C58.9113948,15.7703753 59.3952194,16.6113084 59.717769,17.625036 C60.0403187,18.6387636 60.0863972,19.8598445 59.8560046,21.2882788 C59.7638476,21.656907 59.5795335,22.5669579 59.3030623,24.0184314 C59.0265911,25.469905 58.7040415,27.1402515 58.3354133,29.0294711 C57.9667851,30.9186906 57.5520783,32.8655083 57.0912931,34.8699242 C56.6305078,36.87434 56.1927618,38.5907651 55.7780551,40.0191994 C55.5476625,40.8486128 55.2135932,41.7010656 54.7758472,42.5765576 C54.3381012,43.4520495 53.7736392,44.2469041 53.0824614,44.9611212 C52.3912835,45.6753384 51.56187,46.2628396 50.594221,46.7236248 C49.6265719,47.1844101 48.4746088,47.4148027 47.1383316,47.4148027 L8.84707689,47.4148027 C7.87942786,47.4148027 6.87721993,47.2074494 5.84045311,46.7927426 C4.80368628,46.3780359 3.84755688,45.7905347 2.97206489,45.030239 C2.09657291,44.2699434 1.38235576,43.3483729 0.829413459,42.2655275 C0.276471153,41.1826822 0,39.9731209 0,38.6368436 L0,8.98531247 C0,6.17452242 0.760295671,3.97427282 2.28088701,2.38456369 C3.80147835,0.794854565 5.94412979,0 8.70884132,0 L42.7147931,0 C43.7285207,0 44.7768071,0.195833733 45.8596525,0.5875012 C46.9424978,0.979168667 47.9216665,1.52059134 48.7971585,2.21176922 C49.6726505,2.90294711 50.3868676,3.7093213 50.9398099,4.63089181 C51.4927522,5.55246232 51.7692234,6.54315062 51.7692234,7.60295671 L51.7692234,8.36325238 L48.1750984,8.36325238 C46.3319574,8.36325238 44.1777863,8.35173274 41.7125852,8.32869348 C39.2473841,8.30565422 36.6209081,8.29413459 33.8331573,8.29413459 C31.0454065,8.29413459 28.4419699,8.28261496 26.0228473,8.25957569 C23.6037247,8.23653643 21.5186714,8.2250168 19.7676874,8.2250168 L16.5882692,8.2250168 C15.3902275,8.2250168 14.4571374,8.60516463 13.7889988,9.36546031 C13.1208601,10.125756 12.6024767,11.1279639 12.2338485,12.3720841 C11.8652203,13.7083613 11.4505136,15.125276 10.9897283,16.6228281 C10.5289431,18.1203801 10.1142363,19.5142555 9.74560814,20.8044543 C9.28482289,22.3250456 8.82403763,23.7995584 8.36325238,25.2279927 C8.27109532,25.5966209 8.2250168,25.8961313 8.2250168,26.126524 C8.2250168,26.9098589 8.48996832,27.5664779 9.01987136,28.0963809 C9.54977441,28.626284 10.2063934,28.8912355 10.9897283,28.8912355 C12.4181626,28.8912355 13.3858117,27.9927042 13.8926754,26.1956417 L17.5559182,12.7867908 C23.5461265,12.8328693 29.0294711,12.8559086 34.0059518,12.8559086 L53.3589325,12.8559086 L53.3589325,12.8559086 Z" id="路径" fill="url(#linearGradient-1)"></path>
                    <g id="+" transform="translate(24.000000, 23.000000)" fill="#FFFFFF">
                        <polygon id="路径" points="5.016 0 5.016 4.992 0 4.992 0 7.104 5.016 7.104 5.016 12.12 7.128 12.12 7.128 7.104 12.12 7.104 12.12 4.992 7.128 4.992 7.128 0"></polygon>
                    </g>
                </g>
            </g>
        </g>
    </g>
</svg>