<?xml version="1.0" encoding="UTF-8"?>
<svg width="48px" height="42px" viewBox="0 0 48 42" version="1.1" xmlns="http://www.w3.org/2000/svg" xmlns:xlink="http://www.w3.org/1999/xlink">
    <title>水闸</title>
    <defs>
        <path d="M5.33333333,0 C2.388,0 0,2.3506875 0,5.25 L0,5.25 L0,15.75 L8.53333333,15.75 L8.53333333,12.518625 C8.53333333,9.6193125 10.9213333,7.2699375 13.8666667,7.2699375 L13.8666667,7.2699375 L28.8,7.2699375 C31.7453333,7.2699375 34.1333333,9.6193125 34.1333333,12.518625 L34.1333333,12.518625 L34.1333333,15.75 L42.6666667,15.75 L42.6666667,5.25 C42.6666667,2.3506875 40.2786667,0 37.3333333,0 L37.3333333,0 L5.33333333,0 Z" id="path-1"></path>
        <path d="M5.33333333,0 C2.388,0 0,2.3506875 0,5.25 L0,5.25 L0,15.75 L8.53333333,15.75 L8.53333333,12.518625 C8.53333333,9.6193125 10.9213333,7.2699375 13.8666667,7.2699375 L13.8666667,7.2699375 L28.8,7.2699375 C31.7453333,7.2699375 34.1333333,9.6193125 34.1333333,12.518625 L34.1333333,12.518625 L34.1333333,15.75 L42.6666667,15.75 L42.6666667,5.25 C42.6666667,2.3506875 40.2786667,0 37.3333333,0 L37.3333333,0 L5.33333333,0 Z" id="path-3"></path>
        <path d="M6.66666667,1.3125 L6.66666667,3.9375 L1.33333333,3.9375 C0.597333333,3.9375 0,4.5255 0,5.25 L0,5.25 C0,5.9745 0.597333333,6.5625 1.33333333,6.5625 L1.33333333,6.5625 L6.66666667,6.5625 L6.66666667,9.1875 C6.66666667,9.912 7.264,10.5 8,10.5 L8,10.5 C8.736,10.5 9.33333333,9.912 9.33333333,9.1875 L9.33333333,9.1875 L9.33333333,6.5625 L14.6666667,6.5625 C15.4026667,6.5625 16,5.9745 16,5.25 L16,5.25 C16,4.5255 15.4026667,3.9375 14.6666667,3.9375 L14.6666667,3.9375 L9.33333333,3.9375 L9.33333333,1.3125 C9.33333333,0.588 8.736,0 8,0 L8,0 C7.264,0 6.66666667,0.588 6.66666667,1.3125" id="path-5"></path>
        <path d="M0,0 L0,7.875 C0,10.7743125 2.388,13.125 5.33333333,13.125 L5.33333333,13.125 C8.27866667,13.125 10.6666667,10.7743125 10.6666667,7.875 L10.6666667,7.875 L10.6666667,0" id="path-7"></path>
        <path d="M43.1693333,1.09088886 C42.5053333,1.99651386 41.524,2.62520136 40.3893333,2.62520136 L40.3893333,2.62520136 L39.6506667,2.62520136 C38.4973333,2.62520136 37.5,1.98995136 36.82,1.07382636 L36.82,1.07382636 C36.3333333,0.422826364 35.5493333,0.000201363827 34.6666667,0.000201363827 L34.6666667,0.000201363827 C33.7826667,0.000201363827 33,0.422826364 32.5133333,1.07382636 L32.5133333,1.07382636 C31.8333333,1.98995136 30.836,2.62520136 29.684,2.62520136 L29.684,2.62520136 L28.984,2.62520136 C27.8306667,2.62520136 26.8333333,1.98995136 26.152,1.07382636 L26.152,1.07382636 C25.6666667,0.422826364 24.8826667,0.000201363827 24,0.000201363827 L24,0.000201363827 C23.116,0.000201363827 22.3333333,0.422826364 21.848,1.07382636 L21.848,1.07382636 C21.1666667,1.98995136 20.1693333,2.62520136 19.0173333,2.62520136 L19.0173333,2.62520136 L18.316,2.62520136 C17.164,2.62520136 16.1666667,1.98995136 15.4853333,1.07382636 L15.4853333,1.07382636 C15,0.422826364 14.2173333,0.000201363827 13.3333333,0.000201363827 L13.3333333,0.000201363827 C12.4493333,0.000201363827 11.6666667,0.422826364 11.1813333,1.07382636 L11.1813333,1.07382636 C10.5,1.98995136 9.50266667,2.62520136 8.35066667,2.62520136 L8.35066667,2.62520136 L7.61066667,2.62520136 C6.476,2.62520136 5.49466667,1.99651386 4.83066667,1.09088886 L4.83066667,1.09088886 C4.26666667,0.321763864 3.28933333,-0.134986136 2.21866667,0.0356388638 L2.21866667,0.0356388638 C0.908,0.245638864 0,1.45707636 0,2.76563886 L0,2.76563886 L0,10.5002014 L48,10.5002014 L48,2.76563886 C48,1.45707636 47.092,0.245638864 45.7813333,0.0356388638 L45.7813333,0.0356388638 C45.6293333,0.0120138638 45.48,0.000201363827 45.3333333,0.000201363827 L45.3333333,0.000201363827 C44.4426667,0.000201363827 43.6533333,0.430701364 43.1693333,1.09088886" id="path-9"></path>
    </defs>
    <g id="数字看板" stroke="none" stroke-width="1" fill="none" fill-rule="evenodd">
        <g id="2一码管理" transform="translate(-36.000000, -794.000000)">
            <g id="编组-8备份-4" transform="translate(0.000000, 775.000000)">
                <g id="水闸" transform="translate(36.000000, 19.000000)">
                    <g id="编组">
                        <path d="M30.6666667,3.9375 L25.3333333,3.9375 L25.3333333,1.3125 C25.3333333,0.588 24.736,0 24,0 C23.264,0 22.6666667,0.588 22.6666667,1.3125 L22.6666667,3.9375 L17.3333333,3.9375 C16.5973333,3.9375 16,4.5255 16,5.25 C16,5.9745 16.5973333,6.5625 17.3333333,6.5625 L22.6666667,6.5625 L22.6666667,9.1875 C22.6666667,9.912 23.264,10.5 24,10.5 C24.736,10.5 25.3333333,9.912 25.3333333,9.1875 L25.3333333,6.5625 L30.6666667,6.5625 C31.4026667,6.5625 32,5.9745 32,5.25 C32,4.5255 31.4026667,3.9375 30.6666667,3.9375" id="Fill-1" fill="#576877"></path>
                        <path d="M46.6666667,28.875 L1.33333333,28.875 C0.597333333,28.875 0,28.2883125 0,27.5625 C0,26.8366875 0.597333333,26.25 1.33333333,26.25 L46.6666667,26.25 C47.4026667,26.25 48,26.8366875 48,27.5625 C48,28.2883125 47.4026667,28.875 46.6666667,28.875" id="Fill-3" fill="#A9B3BE"></path>
                    </g>
                    <g id="编组" transform="translate(2.666667, 10.500000)">
                        <g>
                            <mask id="mask-2" fill="white">
                                <use xlink:href="#path-1"></use>
                            </mask>
                            <g id="Clip-6"></g>
                            <path d="M42.6666667,15.75 L34.1333333,15.75 L34.1333333,12.518625 C34.1333333,9.6193125 31.7453333,7.2699375 28.8,7.2699375 L13.8666667,7.2699375 C10.9213333,7.2699375 8.53333333,9.6193125 8.53333333,12.518625 L8.53333333,15.75 L0,15.75 L0,5.25 C0,2.3506875 2.388,0 5.33333333,0 L37.3333333,0 C40.2786667,0 42.6666667,2.3506875 42.6666667,5.25 L42.6666667,15.75 Z" id="Fill-5" fill="#576877" mask="url(#mask-2)"></path>
                        </g>
                        <g>
                            <mask id="mask-4" fill="white">
                                <use xlink:href="#path-3"></use>
                            </mask>
                            <g id="Clip-8"></g>
                        </g>
                    </g>
                    <g id="编组" transform="translate(16.000000, 0.000000)">
                        <mask id="mask-6" fill="white">
                            <use xlink:href="#path-5"></use>
                        </mask>
                        <g id="Clip-10"></g>
                    </g>
                    <g id="编组" transform="translate(18.666667, 9.187500)">
                        <mask id="mask-8" fill="white">
                            <use xlink:href="#path-7"></use>
                        </mask>
                        <g id="Clip-12"></g>
                        <path d="M5.33333333,13.125 L5.33333333,13.125 C2.388,13.125 0,10.7743125 0,7.875 L0,0 L10.6666667,0 L10.6666667,7.875 C10.6666667,10.7743125 8.27866667,13.125 5.33333333,13.125" id="Fill-11" fill="#4093FF" mask="url(#mask-8)"></path>
                    </g>
                    <g id="编组" transform="translate(0.000000, 31.499799)">
                        <mask id="mask-10" fill="white">
                            <use xlink:href="#path-9"></use>
                        </mask>
                        <g id="Clip-16"></g>
                        <path d="M45.7812,0.0360326138 C44.7105333,-0.135904886 43.7332,0.322157614 43.1692,1.09128261 C42.5052,1.99690761 41.5238667,2.62559511 40.3892,2.62559511 L39.6492,2.62559511 C38.4972,2.62559511 37.4998667,1.98903261 36.8185333,1.07422011 C36.3332,0.423220114 35.5505333,0.000595113827 34.6665333,0.000595113827 C33.7825333,0.000595113827 32.9998667,0.423220114 32.5145333,1.07422011 C31.8332,1.98903261 30.8358667,2.62559511 29.6838667,2.62559511 L28.9825333,2.62559511 C27.8305333,2.62559511 26.8332,1.98903261 26.1518667,1.07422011 C25.6665333,0.423220114 24.8838667,0.000595113827 23.9998667,0.000595113827 C23.1158667,0.000595113827 22.3332,0.423220114 21.8478667,1.07422011 C21.1665333,1.98903261 20.1692,2.62559511 19.0172,2.62559511 L18.3158667,2.62559511 C17.1638667,2.62559511 16.1665333,1.98903261 15.4852,1.07422011 C14.9998667,0.423220114 14.2172,0.000595113827 13.3332,0.000595113827 C12.4492,0.000595113827 11.6665333,0.423220114 11.1812,1.07422011 C10.4998667,1.98903261 9.50253333,2.62559511 8.35053333,2.62559511 L7.61053333,2.62559511 C6.47586667,2.62559511 5.49453333,1.99690761 4.83053333,1.09128261 C4.26653333,0.322157614 3.2892,-0.135904886 2.21853333,0.0360326138 C0.907866667,0.246032614 -0.000133333333,1.45747011 -0.000133333333,2.76603261 L-0.000133333333,10.5005951 L47.9998667,10.5005951 L47.9998667,2.76603261 C47.9998667,1.45747011 47.0918667,0.246032614 45.7812,0.0360326138" id="Fill-15" fill="#4093FF" mask="url(#mask-10)"></path>
                    </g>
                </g>
            </g>
        </g>
    </g>
</svg>