<?xml version="1.0" encoding="UTF-8"?>
<svg width="47px" height="42px" viewBox="0 0 47 42" version="1.1" xmlns="http://www.w3.org/2000/svg" xmlns:xlink="http://www.w3.org/1999/xlink">
    <title>海塘</title>
    <defs>
        <path d="M19.3701107,1.18745455 C12.1335174,3.43509091 6.15855088,8.764 2.88812025,15.6927273 L2.88812025,15.6927273 C2.29160351,16.9310909 1.79185231,18.2267273 1.37661786,19.5669091 L1.37661786,19.5669091 L1.37661786,19.5809091 C0.683335565,21.8718182 -0.176530464,25.0103636 0.0316992013,27.6474545 L0.0316992013,27.6474545 C0.738455182,29.7792727 1.70978533,31.7812727 2.90036906,33.6101818 L2.90036906,33.6101818 C2.88812025,33.222 2.87342169,32.8185455 2.87342169,32.4150909 L2.87342169,32.4150909 C2.87342169,29.9523636 3.17719202,27.5609091 3.76023509,25.2852727 L3.76023509,25.2852727 L3.76023509,25.2712727 C3.91334513,24.6794545 4.07992887,24.1029091 4.2587614,23.5276364 L4.2587614,23.5276364 L4.2587614,23.5136364 C5.56203413,19.4650909 7.72517289,15.8212727 10.539948,12.8405455 L10.539948,12.8405455 C9.1668571,16.1967273 8.41845518,19.8978182 8.41845518,23.772 L8.41845518,23.772 C8.41845518,26.9270909 9.80501978,33.1354545 11.9669337,34.7912727 L11.9669337,34.7912727 C13.1452686,35.6834545 14.4068954,36.4763636 15.7101681,37.1687273 L15.7101681,37.1687273 C18.5237183,38.6514545 21.6006179,39.6594545 24.845326,40.0781818 L24.845326,40.0781818 C24.9837375,40.1061818 25.1086753,40.1214545 25.2470868,40.1354545 L25.2470868,40.1354545 C24.998436,39.7892727 24.7620341,39.4443636 24.5268571,39.0841818 L24.5268571,39.0841818 C23.8752207,38.1041818 23.278704,37.0961818 22.7520054,36.0309091 L22.7520054,36.0309091 C20.6856322,31.9263636 19.5085222,27.2732727 19.5085222,22.3325455 L19.5085222,22.3325455 C19.5085222,19.5236364 20.0486944,14.9850909 21.865192,12.5949091 L21.865192,12.5949091 C24.8318523,8.70672727 29.3087901,6.12818182 34.3822447,5.81 L34.3822447,5.81 C34.7288858,5.782 35.0902255,5.768 35.4503403,5.768 L35.4503403,5.768 C36.7805604,5.768 39.8439863,5.86854545 39.9689241,5.81 L39.9689241,5.81 C39.5536896,5.37854545 39.1237566,4.96236364 38.6803499,4.57290909 L38.6803499,4.57290909 C36.8222064,2.92981818 34.7154121,1.56036364 32.4420341,0.567636364 L32.4420341,0.567636364 C32.4273356,0.553636364 32.4138619,0.553636364 32.4138619,0.553636364 L32.4138619,0.553636364 C31.3751633,0.337272727 30.2935939,0.221454545 29.2120246,0.106909091 L29.2120246,0.106909091 C28.4942447,0.0343636364 27.7666657,0 27.036637,0 L27.036637,0 C24.4215174,0 21.763527,0.444181818 19.3701107,1.18745455" id="path-1"></path>
        <path d="M8.98817225,1.28672727 C0.531598086,4.26872727 -1.02032536,16.7274545 3.16631579,24.2747273 L3.16631579,24.2747273 C4.84440191,27.3 6.45266986,30.31 9.0163445,32.4418182 L9.0163445,32.4418182 C9.0163445,32.4418182 11.4575311,31.1309091 12.3994641,30.0223636 L12.3994641,30.0223636 C3.26430622,22.5896364 0.436057416,5.65090909 17.7080957,3.836 L17.7080957,3.836 C16.8359809,4.00909091 15.6711196,4.57036364 14.4780861,5.43454545 L14.4780861,5.43454545 C14.4229665,5.46381818 14.3678469,5.50709091 14.3249761,5.53636364 L14.3249761,5.53636364 C12.5378756,6.70218182 11.0961914,8.33 10.1542584,10.2314545 L10.1542584,10.2314545 C10.1248612,10.2607273 10.1113876,10.2887273 10.0979139,10.318 L10.0979139,10.318 C9.11433493,12.0896364 8.53129187,14.1489091 8.72604785,16.3812727 L8.72604785,16.3812727 C8.76769378,16.9438182 8.85098565,17.5203636 8.97592344,18.0816364 L8.97592344,18.0816364 C8.97592344,18.1249091 8.97592344,18.1681818 8.98817225,18.2114545 L8.98817225,18.2114545 C8.98817225,18.2254545 8.98817225,18.2407273 9.00287081,18.2547273 L9.00287081,18.2547273 C9.21110048,19.4205455 9.584689,20.5303636 10.1113876,21.5383636 L10.1113876,21.5383636 C11.7331292,24.8372727 14.7426603,27.1841818 18.206622,27.9045455 L18.206622,27.9045455 C15.6147751,26.1621818 13.6745646,23.3545455 13.0511005,19.9398182 L13.0511005,19.9398182 C12.9812823,19.5796364 12.9396364,19.2334545 12.912689,18.8872727 L12.912689,18.8872727 C12.8698182,18.5283636 12.8575694,18.1821818 12.8575694,17.836 L12.8575694,17.836 C12.8575694,17.6209091 12.8575694,17.4198182 12.8698182,17.2174545 L12.8698182,17.2174545 C12.8698182,16.9145455 12.8845167,16.6129091 12.9249378,16.3087273 L12.9249378,16.3087273 C12.9543349,15.9930909 12.994756,15.6761818 13.0511005,15.3732727 L13.0511005,15.3732727 C13.7027368,11.7434545 15.9209952,8.58963636 19.066488,6.84727273 L19.066488,6.84727273 C19.0811866,6.832 19.108134,6.832 19.1228325,6.818 L19.1228325,6.818 C19.1363062,6.818 19.1363062,6.80272727 19.1510048,6.80272727 L19.1510048,6.80272727 C19.773244,6.50109091 20.3844593,6.25545455 20.9528038,6.06836364 L20.9528038,6.06836364 C21.3962105,5.90927273 21.8261435,5.78072727 22.2144306,5.67890909 L22.2144306,5.67890909 C22.2830239,5.65090909 22.3528421,5.63563636 22.4214354,5.62163636 L22.4214354,5.62163636 C23.378067,5.37727273 24.1129952,5.29072727 24.4045167,5.30472727 L24.4045167,5.30472727 C24.6115215,5.32 24.8197512,5.348 25.0279809,5.37727273 L25.0279809,5.37727273 C24.944689,5.30472727 24.8748708,5.23218182 24.7928038,5.17490909 L24.7928038,5.17490909 C24.5711005,4.98909091 24.3346986,4.80072727 24.0860478,4.62763636 L24.0860478,4.62763636 C23.7933014,4.41254545 23.4895311,4.19618182 23.1698373,3.99509091 L23.1698373,3.99509091 C23.0865455,3.92254545 22.9897799,3.86527273 22.8930144,3.80672727 L22.8930144,3.80672727 C20.1750048,2.08854545 16.5138373,0.649090909 12.8979904,0.649090909 L12.8979904,0.649090909 C11.5726699,0.649090909 10.2522488,0.842545455 8.98817225,1.28672727" id="path-3"></path>
        <path d="M8.98817225,1.28672727 C0.531598086,4.26872727 -1.02032536,16.7274545 3.16631579,24.2747273 L3.16631579,24.2747273 C4.84440191,27.3 6.45266986,30.31 9.0163445,32.4418182 L9.0163445,32.4418182 C9.0163445,32.4418182 11.4575311,31.1309091 12.3994641,30.0223636 L12.3994641,30.0223636 C3.26430622,22.5896364 0.436057416,5.65090909 17.7080957,3.836 L17.7080957,3.836 C16.8359809,4.00909091 15.6711196,4.57036364 14.4780861,5.43454545 L14.4780861,5.43454545 C14.4229665,5.46381818 14.3678469,5.50709091 14.3249761,5.53636364 L14.3249761,5.53636364 C12.5378756,6.70218182 11.0961914,8.33 10.1542584,10.2314545 L10.1542584,10.2314545 C10.1248612,10.2607273 10.1113876,10.2887273 10.0979139,10.318 L10.0979139,10.318 C9.11433493,12.0896364 8.53129187,14.1489091 8.72604785,16.3812727 L8.72604785,16.3812727 C8.76769378,16.9438182 8.85098565,17.5203636 8.97592344,18.0816364 L8.97592344,18.0816364 C8.97592344,18.1249091 8.97592344,18.1681818 8.98817225,18.2114545 L8.98817225,18.2114545 C8.98817225,18.2254545 8.98817225,18.2407273 9.00287081,18.2547273 L9.00287081,18.2547273 C9.21110048,19.4205455 9.584689,20.5303636 10.1113876,21.5383636 L10.1113876,21.5383636 C11.7331292,24.8372727 14.7426603,27.1841818 18.206622,27.9045455 L18.206622,27.9045455 C15.6147751,26.1621818 13.6745646,23.3545455 13.0511005,19.9398182 L13.0511005,19.9398182 C12.9812823,19.5796364 12.9396364,19.2334545 12.912689,18.8872727 L12.912689,18.8872727 C12.8698182,18.5283636 12.8575694,18.1821818 12.8575694,17.836 L12.8575694,17.836 C12.8575694,17.6209091 12.8575694,17.4198182 12.8698182,17.2174545 L12.8698182,17.2174545 C12.8698182,16.9145455 12.8845167,16.6129091 12.9249378,16.3087273 L12.9249378,16.3087273 C12.9543349,15.9930909 12.994756,15.6761818 13.0511005,15.3732727 L13.0511005,15.3732727 C13.7027368,11.7434545 15.9209952,8.58963636 19.066488,6.84727273 L19.066488,6.84727273 C19.0811866,6.832 19.108134,6.832 19.1228325,6.818 L19.1228325,6.818 C19.1363062,6.818 19.1363062,6.80272727 19.1510048,6.80272727 L19.1510048,6.80272727 C19.773244,6.50109091 20.3844593,6.25545455 20.9528038,6.06836364 L20.9528038,6.06836364 C21.3962105,5.90927273 21.8261435,5.78072727 22.2144306,5.67890909 L22.2144306,5.67890909 C22.2830239,5.65090909 22.3528421,5.63563636 22.4214354,5.62163636 L22.4214354,5.62163636 C23.378067,5.37727273 24.1129952,5.29072727 24.4045167,5.30472727 L24.4045167,5.30472727 C24.6115215,5.32 24.8197512,5.348 25.0279809,5.37727273 L25.0279809,5.37727273 C24.944689,5.30472727 24.8748708,5.23218182 24.7928038,5.17490909 L24.7928038,5.17490909 C24.5711005,4.98909091 24.3346986,4.80072727 24.0860478,4.62763636 L24.0860478,4.62763636 C23.7933014,4.41254545 23.4895311,4.19618182 23.1698373,3.99509091 L23.1698373,3.99509091 C23.0865455,3.92254545 22.9897799,3.86527273 22.8930144,3.80672727 L22.8930144,3.80672727 C20.1750048,2.08854545 16.5138373,0.649090909 12.8979904,0.649090909 L12.8979904,0.649090909 C11.5726699,0.649090909 10.2522488,0.842545455 8.98817225,1.28672727" id="path-5"></path>
    </defs>
    <g id="数字看板" stroke="none" stroke-width="1" fill="none" fill-rule="evenodd">
        <g id="2一码管理" transform="translate(-36.000000, -706.000000)">
            <g id="编组-8备份" transform="translate(0.000000, 687.000000)">
                <g id="海塘" transform="translate(36.000148, 19.036909)">
                    <g id="编组">
                        <mask id="mask-2" fill="white">
                            <use xlink:href="#path-1"></use>
                        </mask>
                        <g id="Clip-2"></g>
                        <path d="M39.9691691,5.81089091 C39.8442313,5.86816364 36.7808054,5.76761818 35.4505853,5.76761818 C35.0892456,5.76761818 34.7291308,5.78289091 34.3824896,5.81089091 C29.3090351,6.1278 24.8320973,8.70634545 21.865437,12.5958 C20.0489394,14.9859818 19.5075423,19.5232545 19.5075423,22.3321636 C19.5075423,27.2728909 20.6858772,31.9259818 22.7522504,36.0305273 C23.278949,37.0970727 23.8742408,38.1050727 24.5271021,39.0838 C24.7622791,39.4439818 24.9974561,39.7901636 25.2473317,40.1350727 C25.1089203,40.1210727 24.9839825,40.1070727 24.845571,40.0778 C21.6008628,39.6603455 18.5239633,38.6523455 15.7091882,37.1683455 C14.4071403,36.4772545 13.1455136,35.6843455 11.9671786,34.7921636 C9.80526475,33.1350727 8.41870016,26.9267091 8.41870016,23.7728909 C8.41870016,19.8974364 9.16710207,16.1963455 10.5389681,12.8401636 C7.72541786,15.8221636 5.56227911,19.4659818 4.25900638,23.5132545 L4.25900638,23.5272545 C4.07894896,24.1038 3.91236523,24.6803455 3.76048006,25.2708909 L3.76048006,25.2848909 C3.177437,27.5605273 2.87366667,29.9519818 2.87366667,32.4147091 C2.87366667,32.8181636 2.88714035,33.2216182 2.90061403,33.6110727 C1.70880542,31.7808909 0.738700158,29.7788909 0.0319441774,27.6470727 C-0.176285488,25.0112545 0.682355661,21.8714364 1.37563796,19.5805273 L1.37563796,19.5665273 C1.79209729,18.2263455 2.2906236,16.9307091 2.88714035,15.6923455 C6.15879585,8.76361818 12.1337624,3.43470909 19.3703557,1.18707273 C22.4337815,0.236345455 25.9271403,-0.224381818 29.2122695,0.1078 C30.2938389,0.222345455 31.3741834,0.336890909 32.4141069,0.553254545 C32.4141069,0.553254545 32.4275805,0.553254545 32.4410542,0.567254545 C34.7156571,1.56125455 36.8224514,2.92943636 38.6805949,4.57252727 C39.1240016,4.96198182 39.5539346,5.37943636 39.9691691,5.81089091" id="Fill-1" fill="#4093FF" mask="url(#mask-2)"></path>
                    </g>
                    <g id="编组" transform="translate(20.822819, 7.599455)">
                        <g>
                            <mask id="mask-4" fill="white">
                                <use xlink:href="#path-3"></use>
                            </mask>
                            <g id="Clip-6"></g>
                            <path d="M25.0279809,5.3774 C24.8197512,5.34812727 24.6127464,5.32012727 24.4045167,5.30485455 C24.1129952,5.29085455 23.378067,5.3774 22.4214354,5.62176364 C22.3528421,5.63703636 22.2830239,5.65103636 22.2144306,5.67903636 C21.8261435,5.78085455 21.3962105,5.9094 20.9528038,6.06849091 C20.3832344,6.25558182 19.773244,6.50121818 19.1497799,6.80285455 C19.1363062,6.80285455 19.1363062,6.81812727 19.1228325,6.81812727 C19.108134,6.83212727 19.0811866,6.83212727 19.066488,6.84612727 C15.9197703,8.58849091 13.701512,11.7435818 13.0511005,15.3734 C12.994756,15.6763091 12.9543349,15.9932182 12.9261627,16.3101273 C12.8845167,16.6130364 12.8710431,16.9146727 12.8710431,17.2175818 C12.8563445,17.4186727 12.8563445,17.6210364 12.8563445,17.8374 C12.8563445,18.1823091 12.8710431,18.5284909 12.9114641,18.8886727 C12.9396364,19.2335818 12.9812823,19.5797636 13.0511005,19.9399455 C13.6745646,23.3534 15.6147751,26.1623091 18.2078469,27.9046727 C14.7426603,27.1843091 11.7331292,24.8374 10.1113876,21.5384909 C9.58591388,20.5304909 9.21110048,19.4206727 9.00287081,18.2548545 C8.98939713,18.2395818 8.98939713,18.2255818 8.98939713,18.2103091 C8.97592344,18.1683091 8.97592344,18.1250364 8.97592344,18.0817636 C8.84976077,17.5204909 8.76769378,16.9439455 8.72604785,16.3814 C8.53129187,14.1490364 9.11433493,12.0897636 10.0979139,10.3181273 C10.1113876,10.2888545 10.1248612,10.2595818 10.1530335,10.2315818 C11.0961914,8.33012727 12.5378756,6.70230909 14.326201,5.53649091 C14.3678469,5.50721818 14.4229665,5.46394545 14.4780861,5.43467273 C15.6711196,4.57049091 16.8359809,4.00921818 17.7080957,3.83612727 C0.436057416,5.65103636 3.26308134,22.5897636 12.3994641,30.0224909 C11.4563062,31.1310364 9.0163445,32.4419455 9.0163445,32.4419455 C6.45144498,30.3101273 4.84440191,27.3001273 3.16631579,24.2748545 C-1.02032536,16.7275818 0.532822967,4.26758182 8.98939713,1.28685455 C13.701512,-0.370236364 19.1779522,1.45867273 22.8930144,3.80685455 C22.9897799,3.8654 23.0877703,3.92267273 23.1698373,3.99521818 C23.4895311,4.19630909 23.7945263,4.41267273 24.084823,4.62776364 C24.3346986,4.80085455 24.5698756,4.98794545 24.7928038,5.17503636 C24.8748708,5.23358182 24.944689,5.30485455 25.0279809,5.3774" id="Fill-5" fill="#576877" mask="url(#mask-4)"></path>
                        </g>
                        <g>
                            <mask id="mask-6" fill="white">
                                <use xlink:href="#path-5"></use>
                            </mask>
                            <g id="Clip-8"></g>
                        </g>
                    </g>
                </g>
            </g>
        </g>
    </g>
</svg>