<?xml version="1.0" encoding="UTF-8"?>
<svg width="48px" height="46px" viewBox="0 0 48 46" version="1.1" xmlns="http://www.w3.org/2000/svg" xmlns:xlink="http://www.w3.org/1999/xlink">
    <title>泵站</title>
    <defs>
        <polygon id="path-1" points="0.0889411765 0.931764706 8.55811765 0.931764706 8.55811765 7.26635294 0.0889411765 7.26635294"></polygon>
        <polygon id="path-3" points="0 0 8.46917647 0 8.46917647 6.33458824 0 6.33458824"></polygon>
        <polygon id="path-5" points="0 0.690352941 4.23529412 0.690352941 4.23529412 16.9411765 0 16.9411765"></polygon>
        <polygon id="path-7" points="0 0.690352941 4.23670588 0.690352941 4.23670588 16.9411765 0 16.9411765"></polygon>
        <path d="M4.23529412,1.41176471 L0,21.1764706 L6.39952941,21.1764706 L10.5995294,6.02541176 L37.3990588,6.02541176 L41.6004706,21.1821176 L48,21.1821176 L42.4348235,1.41741176 C37.6588235,1.43011765 30.9896471,1.42023529 24.2541176,1.41317647 L24.2541176,1.41317647 C19.8367059,1.40752941 15.3910588,1.40188235 11.4324706,1.40188235 L11.4324706,1.40188235 C8.75858824,1.40188235 6.30635294,1.40470588 4.23529412,1.41176471 L4.23529412,1.41176471 Z" id="path-9"></path>
        <path d="M4.23529412,1.41176471 L0,21.1764706 L6.39952941,21.1764706 L10.5995294,6.02541176 L37.3990588,6.02541176 L41.6004706,21.1821176 L48,21.1821176 L42.4348235,1.41741176 C37.6588235,1.43011765 30.9896471,1.42023529 24.2541176,1.41317647 L24.2541176,1.41317647 C19.8367059,1.40752941 15.3910588,1.40188235 11.4324706,1.40188235 L11.4324706,1.40188235 C8.75858824,1.40188235 6.30635294,1.40470588 4.23529412,1.41176471 L4.23529412,1.41176471 Z" id="path-11"></path>
    </defs>
    <g id="数字看板" stroke="none" stroke-width="1" fill="none" fill-rule="evenodd">
        <g id="2一码管理" transform="translate(-36.000000, -880.000000)">
            <g id="编组-8备份-3" transform="translate(0.000000, 863.000000)">
                <g id="泵站" transform="translate(36.000000, 17.000565)">
                    <polygon id="Fill-1" fill="#4093FF" points="8.47058824 7.05882353 8.47058824 22.5882353 39.5294118 22.5882353 39.5294118 7.05882353 23.2941176 0"></polygon>
                    <polygon id="Fill-4" fill="#576877" points="12.7948235 17.8723765 21.264 17.8723765 21.264 9.40178824 12.7948235 9.40178824"></polygon>
                    <g id="编组" transform="translate(12.705882, 8.470024)">
                        <mask id="mask-2" fill="white">
                            <use xlink:href="#path-1"></use>
                        </mask>
                        <g id="Clip-6"></g>
                    </g>
                    <polygon id="Fill-7" fill="#576877" points="26.9124706 17.8723765 35.3830588 17.8723765 35.3830588 9.40178824 26.9124706 9.40178824"></polygon>
                    <g id="编组" transform="translate(26.912471, 9.401788)">
                        <mask id="mask-4" fill="white">
                            <use xlink:href="#path-3"></use>
                        </mask>
                        <g id="Clip-9"></g>
                    </g>
                    <polygon id="Fill-10" fill="#A9B3BE" points="39.6341647 22.5876706 8.3664 22.5876706 4.23557647 25.4112 42.3532235 25.4112"></polygon>
                    <polygon id="Fill-11" fill="#A9B3BE" points="15.5294118 45.1759059 21.1764706 45.1759059 21.1764706 28.9236706 15.5294118 28.9236706"></polygon>
                    <g id="编组" transform="translate(16.941176, 28.234729)">
                        <mask id="mask-6" fill="white">
                            <use xlink:href="#path-5"></use>
                        </mask>
                        <g id="Clip-13"></g>
                    </g>
                    <polygon id="Fill-14" fill="#A9B3BE" points="26.8235294 45.1759059 32.472 45.1759059 32.472 28.9236706 26.8235294 28.9236706"></polygon>
                    <g id="编组" transform="translate(28.235294, 28.234729)">
                        <mask id="mask-8" fill="white">
                            <use xlink:href="#path-7"></use>
                        </mask>
                        <g id="Clip-16"></g>
                    </g>
                    <g id="编组" transform="translate(0.000000, 23.999435)">
                        <g>
                            <mask id="mask-10" fill="white">
                                <use xlink:href="#path-9"></use>
                            </mask>
                            <g id="Clip-18"></g>
                            <path d="M41.6001882,21.1819765 L47.9997176,21.1819765 L42.4345412,1.41727059 C32.4138353,1.44268235 14.0510118,1.37774118 4.23501176,1.41162353 L-0.000282352941,21.1763294 L6.39924706,21.1763294 L10.6006588,6.02527059 L37.3987765,6.02527059 L41.6001882,21.1819765 Z" id="Fill-17" fill="#576877" mask="url(#mask-10)"></path>
                        </g>
                        <g>
                            <mask id="mask-12" fill="white">
                                <use xlink:href="#path-11"></use>
                            </mask>
                            <g id="Clip-20"></g>
                        </g>
                    </g>
                </g>
            </g>
        </g>
    </g>
</svg>