<?xml version="1.0" encoding="UTF-8"?>
<svg width="48px" height="42px" viewBox="0 0 48 42" version="1.1" xmlns="http://www.w3.org/2000/svg" xmlns:xlink="http://www.w3.org/1999/xlink">
    <title>大中型水库</title>
    <g id="数字看板" stroke="none" stroke-width="1" fill="none" fill-rule="evenodd">
        <g id="2一码管理" transform="translate(-36.000000, -530.000000)">
            <g id="编组-7" transform="translate(0.000000, 511.000000)">
                <g id="大中型水库" transform="translate(36.000000, 19.000000)">
                    <g id="编组" transform="translate(0.000000, 31.229700)" fill="#4093FF">
                        <path d="M45.7813333,0.03558704 C44.7106667,-0.134468577 43.7333333,0.319449109 43.1693333,1.08731563 C42.5053333,1.98991852 41.524,2.61650806 40.3893333,2.61650806 L39.6493333,2.61650806 C38.4973333,2.61650806 37.5,1.98337792 36.8186667,1.07161819 C36.3333333,0.421482479 35.5506667,0.000267796429 34.6666667,0.000267796429 C33.7826667,0.000267796429 33,0.421482479 32.5146667,1.07161819 C31.8333333,1.98337792 30.836,2.61650806 29.684,2.61650806 L28.9826667,2.61650806 C27.8306667,2.61650806 26.8333333,1.98337792 26.152,1.07161819 C25.6666667,0.421482479 24.884,0.000267796429 24,0.000267796429 C23.116,0.000267796429 22.3333333,0.421482479 21.848,1.07161819 C21.1666667,1.98337792 20.1693333,2.61650806 19.0173333,2.61650806 L18.316,2.61650806 C17.164,2.61650806 16.1666667,1.98337792 15.4853333,1.07161819 C15,0.421482479 14.2173333,0.000267796429 13.3333333,0.000267796429 C12.4493333,0.000267796429 11.6666667,0.421482479 11.1813333,1.07161819 C10.5,1.98337792 9.50266667,2.61650806 8.35066667,2.61650806 L7.61066667,2.61650806 C6.476,2.61650806 5.49466667,1.98991852 4.83066667,1.08731563 C4.26666667,0.319449109 3.28933333,-0.134468577 2.21866667,0.03558704 C0.908,0.244886261 0,1.45228114 0,2.75647692 L0,10.4652289 L48,10.4652289 L48,2.75647692 C48,1.45228114 47.092,0.244886261 45.7813333,0.03558704" id="Fill-6"></path>
                    </g>
                    <polygon id="Fill-1" fill="#A9B3BE" points="10.5 27 15.8346667 27 15.8346667 6 10.5 6"></polygon>
                    <polygon id="Fill-2" fill="#A9B3BE" points="21 27 26.3333333 27 26.3333333 6 21 6"></polygon>
                    <polygon id="Fill-3" fill="#A9B3BE" points="31.5 27 36.8333333 27 36.8333333 6 31.5 6"></polygon>
                    <polygon id="Fill-8" fill="#576877" points="41.362 0 41.362 5.23248053 35.6206667 5.23248053 33.682 0 28.106 0 26.1673333 5.23248053 21.834 5.23248053 19.894 0 14.318 0 12.3793333 5.23248053 6.63933333 5.23248053 6.63933333 0 0.000666666667 0 0.000666666667 5.23248053 0.000666666667 27 6.66733333 27 6.66733333 12.4271413 24.0006667 12.4271413 41.334 12.4271413 41.334 27 48.0006667 27 48.0006667 5.23248053 48.0006667 0"></polygon>
                </g>
            </g>
        </g>
    </g>
</svg>