<?xml version="1.0" encoding="UTF-8"?>
<svg width="48px" height="42px" viewBox="0 0 48 42" version="1.1" xmlns="http://www.w3.org/2000/svg" xmlns:xlink="http://www.w3.org/1999/xlink">
    <title>堤防</title>
    <defs>
        <path d="M0,0 L0,21 L4.5,21 L4.5,18 C4.5,13.05 8.54933333,9 13.5,9 L13.5,9 C18.4493333,9 22.5,13.05 22.5,18 L22.5,18 L22.5,21 L25.5,21 L25.5,18 C25.5,13.05 29.5493333,9 34.5,9 L34.5,9 C39.4493333,9 43.5,13.05 43.5,18 L43.5,18 L43.5,21 L48,21 L48,0 L0,0 Z" id="path-1"></path>
        <path d="M0,0 L0,21 L4.5,21 L4.5,18 C4.5,13.05 8.54933333,9 13.5,9 L13.5,9 C18.4493333,9 22.5,13.05 22.5,18 L22.5,18 L22.5,21 L25.5,21 L25.5,18 C25.5,13.05 29.5493333,9 34.5,9 L34.5,9 C39.4493333,9 43.5,13.05 43.5,18 L43.5,18 L43.5,21 L48,21 L48,0 L0,0 Z" id="path-3"></path>
        <path d="M43.1693333,1.24673013 C42.5053333,2.28173013 41.524,3.00023013 40.3893333,3.00023013 L40.3893333,3.00023013 L39.6506667,3.00023013 C38.4973333,3.00023013 37.5,2.27423013 36.82,1.22723013 L36.82,1.22723013 C36.3333333,0.48323013 35.5493333,0.000230130088 34.6666667,0.000230130088 L34.6666667,0.000230130088 C33.7826667,0.000230130088 33,0.48323013 32.5133333,1.22723013 L32.5133333,1.22723013 C31.8333333,2.27423013 30.836,3.00023013 29.684,3.00023013 L29.684,3.00023013 L28.984,3.00023013 C27.8306667,3.00023013 26.8333333,2.27423013 26.152,1.22723013 L26.152,1.22723013 C25.6666667,0.48323013 24.8826667,0.000230130088 24,0.000230130088 L24,0.000230130088 C23.116,0.000230130088 22.3333333,0.48323013 21.848,1.22723013 L21.848,1.22723013 C21.1666667,2.27423013 20.1693333,3.00023013 19.0173333,3.00023013 L19.0173333,3.00023013 L18.316,3.00023013 C17.164,3.00023013 16.1666667,2.27423013 15.4853333,1.22723013 L15.4853333,1.22723013 C15,0.48323013 14.2173333,0.000230130088 13.3333333,0.000230130088 L13.3333333,0.000230130088 C12.4493333,0.000230130088 11.6666667,0.48323013 11.1813333,1.22723013 L11.1813333,1.22723013 C10.5,2.27423013 9.50266667,3.00023013 8.35066667,3.00023013 L8.35066667,3.00023013 L7.61066667,3.00023013 C6.476,3.00023013 5.49466667,2.28173013 4.83066667,1.24673013 L4.83066667,1.24673013 C4.26666667,0.36773013 3.28933333,-0.15426987 2.21866667,0.0407301301 L2.21866667,0.0407301301 C0.908,0.28073013 0,1.66523013 0,3.16073013 L0,3.16073013 L0,12.0002301 L48,12.0002301 L48,3.16073013 C48,1.66523013 47.092,0.28073013 45.7813333,0.0407301301 L45.7813333,0.0407301301 C45.6293333,0.0137301301 45.48,0.000230130088 45.3333333,0.000230130088 L45.3333333,0.000230130088 C44.4426667,0.000230130088 43.6533333,0.49223013 43.1693333,1.24673013" id="path-5"></path>
    </defs>
    <g id="数字看板" stroke="none" stroke-width="1" fill="none" fill-rule="evenodd">
        <g id="2一码管理" transform="translate(-36.000000, -618.000000)">
            <g id="编组-8备份-2" transform="translate(0.000000, 599.000000)">
                <g id="堤防" transform="translate(36.000000, 19.000000)">
                    <g id="编组" transform="translate(0.000000, 6.000000)">
                        <g>
                            <mask id="mask-2" fill="white">
                                <use xlink:href="#path-1"></use>
                            </mask>
                            <g id="Clip-2"></g>
                            <path d="M0,0 L0,21 L4.5,21 L4.5,18 C4.5,13.05 8.55066667,9 13.5,9 C18.4493333,9 22.5,13.05 22.5,18 L22.5,21 L25.5,21 L25.5,18 C25.5,13.05 29.5506667,9 34.5,9 C39.4493333,9 43.5,13.05 43.5,18 L43.5,21 L48,21 L48,0 L0,0 Z" id="Fill-1" fill="#576877" mask="url(#mask-2)"></path>
                        </g>
                        <g>
                            <mask id="mask-4" fill="white">
                                <use xlink:href="#path-3"></use>
                            </mask>
                            <g id="Clip-4"></g>
                        </g>
                    </g>
                    <polygon id="Fill-5" fill="#4093FF" points="18.6666667 6 29.3333333 6 29.3333333 0 18.6666667 0"></polygon>
                    <polygon id="Fill-6" fill="#4093FF" points="0 6 5.33333333 6 5.33333333 0 0 0"></polygon>
                    <polygon id="Fill-7" fill="#4093FF" points="42.6666667 6 48 6 48 0 42.6666667 0"></polygon>
                    <g id="编组" transform="translate(0.000000, 29.999770)">
                        <mask id="mask-6" fill="white">
                            <use xlink:href="#path-5"></use>
                        </mask>
                        <g id="Clip-9"></g>
                        <path d="M45.7812,0.0411801301 C44.7105333,-0.15531987 43.7332,0.36818013 43.1692,1.24718013 C42.5052,2.28218013 41.5238667,3.00068013 40.3892,3.00068013 L39.6492,3.00068013 C38.4972,3.00068013 37.4998667,2.27318013 36.8185333,1.22768013 C36.3332,0.48368013 35.5505333,0.000680130088 34.6665333,0.000680130088 C33.7825333,0.000680130088 32.9998667,0.48368013 32.5145333,1.22768013 C31.8332,2.27318013 30.8358667,3.00068013 29.6838667,3.00068013 L28.9825333,3.00068013 C27.8305333,3.00068013 26.8332,2.27318013 26.1518667,1.22768013 C25.6665333,0.48368013 24.8838667,0.000680130088 23.9998667,0.000680130088 C23.1158667,0.000680130088 22.3332,0.48368013 21.8478667,1.22768013 C21.1665333,2.27318013 20.1692,3.00068013 19.0172,3.00068013 L18.3158667,3.00068013 C17.1638667,3.00068013 16.1665333,2.27318013 15.4852,1.22768013 C14.9998667,0.48368013 14.2172,0.000680130088 13.3332,0.000680130088 C12.4492,0.000680130088 11.6665333,0.48368013 11.1812,1.22768013 C10.4998667,2.27318013 9.50253333,3.00068013 8.35053333,3.00068013 L7.61053333,3.00068013 C6.47586667,3.00068013 5.49453333,2.28218013 4.83053333,1.24718013 C4.26653333,0.36818013 3.2892,-0.15531987 2.21853333,0.0411801301 C0.907866667,0.28118013 -0.000133333333,1.66568013 -0.000133333333,3.16118013 L-0.000133333333,12.0006801 L47.9998667,12.0006801 L47.9998667,3.16118013 C47.9998667,1.66568013 47.0918667,0.28118013 45.7812,0.0411801301" id="Fill-8" fill="#4093FF" mask="url(#mask-6)"></path>
                    </g>
                </g>
            </g>
        </g>
    </g>
</svg>