<?xml version="1.0" encoding="UTF-8"?>
<svg width="126px" height="126px" viewBox="0 0 126 126" version="1.1" xmlns="http://www.w3.org/2000/svg" xmlns:xlink="http://www.w3.org/1999/xlink">
    <title>编组 9</title>
    <defs>
        <linearGradient x1="7.8300708%" y1="0%" x2="92.1699292%" y2="100%" id="linearGradient-1">
            <stop stop-color="#69E0C5" offset="0%"></stop>
            <stop stop-color="#08A58F" offset="100%"></stop>
        </linearGradient>
    </defs>
    <g id="页面-1" stroke="none" stroke-width="1" fill="none" fill-rule="evenodd">
        <g id="快捷操作窗" transform="translate(-563.000000, -1365.000000)">
            <g id="编组-9" transform="translate(563.000000, 1365.000000)">
                <circle id="椭圆形备份-8" fill="#FAFAFB" cx="63" cy="63" r="63"></circle>
                <path d="M81.2585034,33 C84.1609977,33 86.3605442,33.8503401 87.8571429,35.5510204 C89.3537415,37.2517007 90.1020408,39.3265306 90.1020408,41.7755102 L90.1020408,77.8979592 C90.1020408,79.031746 89.6258503,80.0521542 88.6734694,80.9591837 L77.3129252,91.8435374 C76.723356,92.3424036 76.2244898,92.6598639 75.8163265,92.7959184 C75.4081633,92.9319728 74.8866213,93 74.2517007,93 L43.707483,93 C42.6643991,93 41.6213152,92.7845805 40.5782313,92.3537415 C39.5351474,91.9229025 38.6054422,91.3106576 37.7891156,90.5170068 C36.9727891,89.723356 36.3038549,88.7709751 35.7823129,87.6598639 C35.260771,86.5487528 35,85.3129252 35,83.952381 L35,41.7755102 C35,39.0997732 35.7369615,36.968254 37.2108844,35.3809524 C38.6848073,33.7936508 40.7823129,33 43.5034014,33 L81.2585034,33 Z M66.9727891,75.6530612 C67.5623583,75.6530612 68.0612245,75.4489796 68.4693878,75.0408163 C68.877551,74.6326531 69.0816327,74.1337868 69.0816327,73.5442177 C69.0816327,72.9092971 68.877551,72.399093 68.4693878,72.0136054 C68.0612245,71.6281179 67.5623583,71.4353741 66.9727891,71.4353741 L45.6802721,71.4353741 C45.0907029,71.4353741 44.5918367,71.6281179 44.1836735,72.0136054 C43.7755102,72.399093 43.5714286,72.9092971 43.5714286,73.5442177 C43.5714286,74.1337868 43.7755102,74.6326531 44.1836735,75.0408163 C44.5918367,75.4489796 45.0907029,75.6530612 45.6802721,75.6530612 L66.9727891,75.6530612 Z M75.4761905,62.8639456 C76.0657596,62.8639456 76.5646259,62.6598639 76.9727891,62.2517007 C77.3809524,61.8435374 77.585034,61.3446712 77.585034,60.755102 C77.585034,60.1655329 77.3809524,59.6666667 76.9727891,59.2585034 C76.5646259,58.8503401 76.0657596,58.6462585 75.4761905,58.6462585 L45.6802721,58.6462585 C45.0907029,58.6462585 44.5918367,58.8503401 44.1836735,59.2585034 C43.7755102,59.6666667 43.5714286,60.1655329 43.5714286,60.755102 C43.5714286,61.3446712 43.7755102,61.8435374 44.1836735,62.2517007 C44.5918367,62.6598639 45.0907029,62.8639456 45.6802721,62.8639456 L75.4761905,62.8639456 Z M79.6938776,50.1428571 C80.2834467,50.1428571 80.7823129,49.9387755 81.1904762,49.5306122 C81.5986395,49.122449 81.8027211,48.600907 81.8027211,47.9659864 C81.8027211,47.3764172 81.5986395,46.877551 81.1904762,46.4693878 C80.7823129,46.0612245 80.2834467,45.8571429 79.6938776,45.8571429 L45.6802721,45.8571429 C45.0907029,45.8571429 44.5918367,46.0612245 44.1836735,46.4693878 C43.7755102,46.877551 43.5714286,47.3764172 43.5714286,47.9659864 C43.5714286,48.600907 43.7755102,49.122449 44.1836735,49.5306122 C44.5918367,49.9387755 45.0907029,50.1428571 45.6802721,50.1428571 L79.6938776,50.1428571 Z" id="形状" fill="url(#linearGradient-1)" fill-rule="nonzero"></path>
            </g>
        </g>
    </g>
</svg>