<?xml version="1.0" encoding="UTF-8"?>
<svg width="126px" height="126px" viewBox="0 0 126 126" version="1.1" xmlns="http://www.w3.org/2000/svg" xmlns:xlink="http://www.w3.org/1999/xlink">
    <title>编组 8</title>
    <defs>
        <linearGradient x1="50%" y1="0%" x2="50%" y2="100%" id="linearGradient-1">
            <stop stop-color="#FA809C" offset="0%"></stop>
            <stop stop-color="#FC5D7D" offset="100%"></stop>
        </linearGradient>
    </defs>
    <g id="页面-1" stroke="none" stroke-width="1" fill="none" fill-rule="evenodd">
        <g id="快捷操作窗" transform="translate(-313.000000, -1365.000000)">
            <g id="编组-8" transform="translate(313.000000, 1365.000000)">
                <circle id="椭圆形备份-7" fill="#FAFAFB" cx="63" cy="63" r="63"></circle>
                <path d="M78.0017034,59.4238846 C80.3265691,59.4663625 82.4932443,58.2503731 83.6681125,56.2437617 C84.8429807,54.2371503 84.8429807,51.7525755 83.6681125,49.7459641 C82.4932443,47.7393527 80.3265691,46.5233633 78.0017034,46.5658412 C74.4968345,46.6298791 71.6890742,49.489409 71.6890742,52.9948629 C71.6890742,56.5003168 74.4968345,59.3598467 78.0017034,59.4238846 Z M89.2481725,38 L36.7518275,38 C34.6618455,38 33,39.7007963 33,41.7907783 L33,85.6273925 C33,87.7173208 34.6618455,89.4181708 36.7518275,89.4181708 L89.2481725,89.4181708 C91.3381008,89.4181708 93,87.7173208 93,85.6273925 L93,41.7907783 C93,39.7007963 91.3381008,38 89.2481725,38 Z M75.4447952,64.4736416 C75.0204059,63.9616382 74.3950427,63.6585646 73.7302105,63.642692 C73.0480893,63.642692 72.5673747,63.9631506 72.0156796,64.4049681 L69.5114031,66.5224195 C68.9894844,66.8978168 68.5728293,67.1519089 67.9731163,67.1519089 C67.4310498,67.1552691 66.9065552,66.9598101 66.498889,66.6025207 C66.3026045,66.4236363 66.1102723,66.2404627 65.9220314,66.0531326 L58.7181793,58.2609951 C58.1539909,57.6168736 57.3379899,57.2493649 56.4817295,57.2537478 C55.5844134,57.2537478 54.7534639,57.6978723 54.2315451,58.2998923 L37.2851739,78.7325712 L37.2851739,43.8532372 C37.4179606,42.9421327 38.1276049,42.2851739 39.0386557,42.2851739 L86.9453026,42.2851739 C87.8700881,42.2851739 88.6186831,42.9696021 88.6735683,43.8921343 L88.7125191,78.7599869 L75.4401275,64.4736416 L75.4447952,64.4736416 Z" id="形状" fill="url(#linearGradient-1)" fill-rule="nonzero"></path>
            </g>
        </g>
    </g>
</svg>