<?xml version="1.0" encoding="UTF-8"?>
<svg width="160px" height="44px" viewBox="0 0 160 44" version="1.1" xmlns="http://www.w3.org/2000/svg" xmlns:xlink="http://www.w3.org/1999/xlink">
    <title>用户及头像</title>
    <g id="四川省水利工程建设信用平台-水利行政部门角色" stroke="none" stroke-width="1" fill="none" fill-rule="evenodd">
        <g id="1.智能预警" transform="translate(-1650.000000, -8.000000)">
            <g id="用户及头像" transform="translate(1650.000000, 8.000000)">
                <rect id="矩形" fill="#FFFFFF" opacity="0.119262" x="0" y="0" width="160" height="44" rx="22"></rect>
                <circle id="椭圆形" fill="#FFFFFF" cx="22" cy="22" r="20"></circle>
                <g id="编组" transform="translate(12.000000, 13.000000)" fill="#3C4EE2" fill-rule="nonzero">
                    <path d="M19.7060356,19.1649772 C19.1634004,16.2120832 17.3521344,13.646123 14.7514446,12.1459733 C14.4629343,11.979095 14.1644037,11.8301744 13.8575539,11.7000602 C12.3497359,11.1097238 10.740798,10.8207602 9.12179065,10.849522 C4.65336889,11.2066655 0.945683306,14.6026247 0.0517925202,19.1598162 C-0.0328553275,19.5202121 0.049842429,19.8995597 0.276813528,20.1920227 C0.509278565,20.4686085 0.849734747,20.6315008 1.21096036,20.638968 L18.5004185,20.638968 L18.5004185,20.6451613 C18.8625484,20.6368528 19.2037586,20.4737634 19.4376619,20.1971837 C19.6958932,19.9206242 19.7968598,19.5322911 19.7060356,19.1649772 L19.7060356,19.1649772 Z M9.88149458,10.278712 C12.7190767,10.2792823 15.0201731,7.98003419 15.0218827,5.14245256 C15.0218827,2.30463472 12.7213768,0.00412883065 9.88355899,0.00412883065 C7.04574116,0.00412883065 4.74523526,2.30463472 4.74523526,5.14245256 C4.74580512,7.97889417 7.04505296,10.278142 9.88149458,10.278712 L9.88149458,10.278712 Z" id="形状"></path>
                </g>
            </g>
        </g>
    </g>
</svg>