<?xml version="1.0" encoding="UTF-8"?>
<svg width="56px" height="48px" viewBox="0 0 56 48" version="1.1" xmlns="http://www.w3.org/2000/svg" xmlns:xlink="http://www.w3.org/1999/xlink">
    <title>icon/logo</title>
    <defs>
        <polygon id="path-1" points="4.0771751e-05 8.28378433e-05 56.0000408 8.28378433e-05 56.0000408 47.4074902 4.0771751e-05 47.4074902"></polygon>
    </defs>
    <g id="四川省水利工程建设信用平台-水利行政部门角色" stroke="none" stroke-width="1" fill="none" fill-rule="evenodd">
        <g id="1.智能预警" transform="translate(-20.000000, -6.000000)">
            <g id="编组" transform="translate(20.000000, 6.000000)">
                <mask id="mask-2" fill="white">
                    <use xlink:href="#path-1"></use>
                </mask>
                <g id="Clip-2"></g>
                <path d="M45.5740415,34.1757442 C42.1809896,31.411723 40.1351174,27.8307707 40.1351174,23.9234691 C40.1351174,20.0170141 42.1809896,16.4402945 45.5740415,13.67585 C48.9670934,16.4402945 51.0129657,20.0170141 51.0129657,23.9234691 C51.0129657,27.8307707 48.9670934,31.411723 45.5740415,34.1757442 M31.1232384,39.6525696 L31.1232384,8.19479183 C35.0769179,8.56727861 38.7168133,9.62971247 41.7663762,11.2038924 C37.6336306,14.6371199 35.1438585,19.0726754 35.1438585,23.9234691 C35.1438585,28.774686 37.6336306,33.2144744 41.7626108,36.6477019 C38.7126295,38.2180723 35.0769179,39.2805061 31.1232384,39.6525696 M13.9822597,36.5122522 C18.0154311,33.0963791 20.4378443,28.7111939 20.4378443,23.9234691 C20.4378443,19.1365908 18.0112473,14.7509823 13.9776575,11.3397654 C17.1786736,9.6377548 21.0486773,8.50759607 25.2659354,8.1609294 L25.2659354,39.6868553 C21.0486773,39.3397654 17.1828574,38.2091834 13.9822597,36.5122522 M10.2210344,34.0021992 C6.95349613,31.2635749 4.99129964,27.7499241 4.99129964,23.9234691 C4.99129964,20.0974373 6.95349613,16.5884426 10.2210344,13.8455855 C13.4885727,16.5884426 15.4507692,20.0974373 15.4507692,23.9234691 C15.4507692,27.7499241 13.4885727,31.2635749 10.2210344,34.0021992 M49.3771046,11.2038924 C48.2307468,10.2477019 46.9546915,9.37108813 45.5740415,8.58844263 C41.5325025,6.29002993 36.5621625,4.77002993 31.1232384,4.3467495 L31.1232384,2.9630458 C31.1232384,2.1414585 30.7969029,1.40537384 30.2655619,0.867807706 C29.7342208,0.330241568 29.0058234,8.28378433e-05 28.1945869,8.28378433e-05 C26.575461,8.28378433e-05 25.2659354,1.32495056 25.2659354,2.9630458 L25.2659354,4.31754316 C19.5843516,4.70696114 14.3960363,6.29002993 10.2210344,8.70696114 C8.85251742,9.49849554 7.59361567,10.3784955 6.45980917,11.3397654 C2.42663771,14.7509823 4.0771751e-05,19.1365908 4.0771751e-05,23.9234691 C4.0771751e-05,28.7111939 2.42663771,33.1006119 6.45980917,36.5122522 C7.59361567,37.4730987 8.85251742,38.353522 10.2210344,39.1450564 C14.3960363,41.5619876 19.5843516,43.1446331 25.2659354,43.5340511 L25.2659354,44.4445273 C25.2659354,46.0826225 26.575461,47.4074902 28.1945869,47.4074902 C29.8137128,47.4074902 31.1232384,46.0826225 31.1232384,44.4445273 L31.1232384,43.5048447 C36.5621625,43.0815643 41.5325025,41.5619876 45.5740415,39.2635749 C46.9588753,38.4805061 48.2349306,37.6000828 49.3812884,36.6477019 C53.510687,33.2144744 56.0000408,28.774686 56.0000408,23.9234691 C56.0000408,19.0726754 53.510687,14.6371199 49.3771046,11.2038924" id="Fill-1" fill="#FFFFFF" mask="url(#mask-2)"></path>
            </g>
        </g>
    </g>
</svg>