<?xml version="1.0" encoding="UTF-8"?>
<svg width="25px" height="25px" viewBox="0 0 25 25" version="1.1" xmlns="http://www.w3.org/2000/svg" xmlns:xlink="http://www.w3.org/1999/xlink">
    <title>退出</title>
    <g id="四川省水利工程建设信用平台-水利行政部门角色" stroke="none" stroke-width="1" fill="none" fill-rule="evenodd">
        <g id="1.智能预警" transform="translate(-1834.000000, -17.000000)" fill="#FFFFFF" fill-rule="nonzero">
            <g id="编组" transform="translate(1834.000000, 17.000000)">
                <path d="M13.5677333,15.527083 C13.4775423,15.527083 13.4071885,15.527083 13.337081,15.527083 C10.9269372,15.527083 8.51686739,15.5273105 6.10667432,15.527083 C5.74936043,15.5269693 5.51649034,15.3758048 5.4590737,15.1053238 C5.4477875,15.0512958 5.44884713,14.994538 5.44884713,14.9392589 C5.44844121,12.9620633 5.44844121,10.9849815 5.44844121,9.00780873 C5.44844121,8.63279787 5.66860749,8.43329255 6.0811695,8.43329255 C8.50220519,8.43317881 10.9233148,8.43317881 13.3444737,8.43317881 C13.4096527,8.43317881 13.4753245,8.43317881 13.5677333,8.43317881 C13.5677333,8.36902772 13.5677333,8.31120075 13.5677333,8.25319179 C13.5677333,6.49354121 13.5674869,4.73375413 13.5679797,2.97394431 C13.5679797,2.73178534 13.6930396,2.53864963 13.9048405,2.46467115 C14.1485532,2.3794776 14.3647897,2.41871895 14.5484983,2.59790976 C14.6538443,2.70066524 14.7685544,2.79518572 14.8767343,2.89512037 C16.2415501,4.15232238 17.6061195,5.4100931 18.9705657,6.6672951 C20.7231287,8.28165031 22.475815,9.89559603 24.228378,11.509883 C24.5201433,11.7783621 24.521745,12.0615823 24.2334297,12.3271724 C21.7253326,14.638545 19.2175066,16.9501224 16.7086702,19.2605851 C15.9951514,19.9176787 15.2778129,20.5707914 14.5649101,21.2284537 C14.3814479,21.3979309 14.1767933,21.4722051 13.926304,21.3843955 C13.6827144,21.2990882 13.5680044,21.122104 13.5680044,20.8437747 C13.5676347,19.13979 13.5677579,17.4355778 13.5677579,15.7316158 C13.5677333,15.671423 13.5677333,15.6113666 13.5677333,15.527083 Z M11.7325251,0.151080818 C11.7325251,1.01033106 11.7325251,1.85161636 11.7325251,2.71662123 C11.6483382,2.71662123 11.5725348,2.71662123 11.49679,2.71662123 C9.32157088,2.71662123 7.14635179,2.71632911 4.97116192,2.71676728 C3.59276854,2.71697176 2.57773446,3.73410906 2.57767604,5.11521908 C2.57747156,9.89424537 2.58623495,14.6732132 2.57192141,19.4518598 C2.56797789,20.7162707 3.52990583,21.6272249 4.41924371,21.7935833 C4.61574809,21.8299513 4.81876659,21.8464557 5.01880554,21.8468939 C7.17451148,21.8506913 9.33030505,21.8492308 11.4860986,21.8492308 C11.5626906,21.8492308 11.6393703,21.8492308 11.7286108,21.8492308 C11.7286108,22.705852 11.7286108,23.5468452 11.7286108,24.4001071 C11.6979389,24.4062415 11.6621551,24.4199708 11.6262836,24.4199708 C9.33416094,24.4199708 7.04180457,24.4433398 4.75026611,24.4100389 C2.51063611,24.3779065 0.527335239,22.6782473 0.0999155696,20.4783447 C0.0395942454,20.1684129 0.0100908374,19.8475268 0.00974030185,19.5317527 C0.00419015579,14.7006426 -0.00857518014,9.86976631 0.0127198539,5.03903603 C0.0216292989,3.0212074 1.02416094,1.5726777 2.77493991,0.631285297 C3.39261275,0.299006816 4.07490096,0.148948393 4.77816289,0.147195716 C7.05071401,0.141061344 9.32329434,0.144858812 11.5959039,0.145004869 C11.6343167,0.14503408 11.672642,0.148393379 11.7325251,0.151080818 Z" id="形状"></path>
            </g>
        </g>
    </g>
</svg>