<?xml version="1.0" encoding="UTF-8"?>
<svg width="16px" height="16px" viewBox="0 0 16 16" version="1.1" xmlns="http://www.w3.org/2000/svg" xmlns:xlink="http://www.w3.org/1999/xlink">
    <title>编组</title>
    <g id="四川省水利工程建设信用平台-水利行政部门角色" stroke="none" stroke-width="1" fill="none" fill-rule="evenodd">
        <g id="6.统计信息-企业信用" transform="translate(-156.000000, -84.000000)" fill="#215EA5" fill-rule="nonzero">
            <g id="编组" transform="translate(156.000000, 84.000000)">
                <path d="M15.7642857,14.6267857 L12.8964286,11.7589286 C13.8875,10.5196429 14.4839286,8.95178571 14.4839286,7.24285714 C14.4821429,3.24285714 11.2410714,0 7.24107143,0 C3.24107143,0 0,3.24285714 0,7.24107143 C0,11.2392857 3.24285714,14.4821429 7.24107143,14.4821429 C8.95,14.4821429 10.5196429,13.8857143 11.7571429,12.8946429 L14.625,15.7625 C14.9392857,16.0767857 15.4482143,16.0767857 15.7625,15.7625 C16.0785714,15.45 16.0785714,14.9410714 15.7642857,14.6267857 Z M7.24107143,12.8732143 C4.13035714,12.8732143 1.60892857,10.3517857 1.60892857,7.24107143 C1.60892857,4.13035714 4.13035714,1.60892857 7.24107143,1.60892857 C10.3517857,1.60892857 12.8732143,4.13035714 12.8732143,7.24107143 C12.8732143,10.3517857 10.3517857,12.8732143 7.24107143,12.8732143 Z" id="形状"></path>
            </g>
        </g>
    </g>
</svg>