<?xml version="1.0" encoding="UTF-8"?>
<svg width="14px" height="12px" viewBox="0 0 14 12" version="1.1" xmlns="http://www.w3.org/2000/svg" xmlns:xlink="http://www.w3.org/1999/xlink">
    <title>企业信息</title>
    <g id="四川省水利工程建设信用平台-水利行政部门角色" stroke="none" stroke-width="1" fill="none" fill-rule="evenodd">
        <g id="3.统计信息-企业统计" transform="translate(-204.000000, -74.000000)" fill="#93ADC6" fill-rule="nonzero">
            <g id="编组备份" transform="translate(204.000000, 74.000000)">
                <path d="M3.5390005,8.97288963 L2.3437925,8.97288963 C1.9852245,8.97288963 1.6266845,8.67407363 1.6266845,8.25580962 L1.6266845,2.69808963 C1.6266845,2.33952162 1.9254725,1.98098163 2.3437925,1.98098163 L3.5390005,1.98098163 C3.8975405,1.98098163 4.2561085,2.27976962 4.2561085,2.69808963 L4.2561085,8.25580962 C4.1963565,8.67412963 3.8975685,8.97288963 3.5390005,8.97288963 L3.5390005,8.97288963 Z M7.3636045,8.97288963 L6.1684245,8.97288963 C5.8098845,8.97288963 5.4512885,8.67407363 5.4512885,8.25580962 L5.4512885,4.78968963 C5.4512885,4.43114963 5.7501045,4.07258163 6.1684245,4.07258163 L7.3636325,4.07258163 C7.7222005,4.07258163 8.0807125,4.37136963 8.0807125,4.78968963 L8.0807125,8.25580962 C8.0807405,8.67412963 7.7819525,8.97288963 7.3636045,8.97288963 Z M11.3077965,8.97288963 L10.1125885,8.97288963 C9.7540205,8.97288963 9.3954525,8.67407363 9.3954525,8.25580962 L9.3954525,0.725993625 C9.3954525,0.367453625 9.6942685,0.008885625 10.1125885,0.008885625 L11.3077965,0.008885625 C11.6663645,0.008885625 12.0248765,0.307673625 12.0248765,0.725993625 L12.0248765,8.25578163 C12.0248765,8.67412963 11.6663365,8.97288963 11.3077965,8.97288963 L11.3077965,8.97288963 Z M13.3395885,11.0645176 L0.5510085,11.0645176 C0.2521925,11.0645176 0.0131565,10.7656736 0.0131565,10.5266656 L0.0131565,10.4668856 C0.0131565,10.1680696 0.3119725,9.92903363 0.5510085,9.92903363 L13.3396445,9.92903363 C13.6384325,9.92903363 13.8774685,10.2278496 13.8774685,10.4668856 L13.8774685,10.5266656 C13.8774685,10.7656736 13.6384325,11.0645176 13.3396445,11.0645176 L13.3395885,11.0645176 Z" id="形状"></path>
            </g>
        </g>
    </g>
</svg>